<svg id="Capa_1" data-name="Capa 1" xmlns="http://www.w3.org/2000/svg" xmlns:xlink="http://www.w3.org/1999/xlink" viewBox="0 0 439.18 160.05"><defs><style>.cls-1,.cls-3,.cls-4{fill:#fff;}.cls-1,.cls-4{stroke:#fff;stroke-miterlimit:10;}.cls-2{fill:url(#Degradado_sin_nombre_19);}.cls-3,.cls-4{font-size:38px;font-family:NugoSans-Light, Nugo Sans;}.cls-4{stroke-width:2px;}</style><linearGradient id="Degradado_sin_nombre_19" x1="3.15" y1="127.5" x2="96.28" y2="127.5" gradientUnits="userSpaceOnUse"><stop offset="0" stop-color="#c0930c"/><stop offset="0.95" stop-color="#c0930c"/></linearGradient></defs><title>arte 2 mall donzom</title><path class="cls-1" d="M52.26,60.25l8.36,6.32-47.89,64.8S8.45,124.45,7.43,120Z" transform="translate(-3.15 -27.16)"/><path class="cls-2" d="M85.27,67.79a49.58,49.58,0,0,1,11,10C86.5,90.82,15,187.21,15,187.21a68.94,68.94,0,0,1-6.42-4.38c-2-1.56-3.83-3.11-5.4-4.58C72.23,85.32,85.27,67.79,85.27,67.79Z" transform="translate(-3.15 -27.16)"/><path class="cls-1" d="M138.77,54.34,144,65.55,70.4,164.39s-8.77.41-12.84-1.22q31.71-43,63.76-85.65Q130,65.93,138.77,54.34Z" transform="translate(-3.15 -27.16)"/><path class="cls-1" d="M125.48,105l11.74-16.11c.47,5,2,27.61-14,48A68.32,68.32,0,0,1,85.5,161l11.74-16.31a54,54,0,0,0,12-8.75C120.79,124.79,124.29,111.34,125.48,105Z" transform="translate(-3.15 -27.16)"/><path class="cls-1" d="M118.29,67.18l7.13-10c-3-4.43-16.73-23.19-42.07-28.28-24.52-4.93-49.9,5-65.12,24C-.12,75.86,3.84,102.65,4.57,107.12l9.79-12.84S14,59,49.1,42.73,115.26,56.84,118.29,67.18Z" transform="translate(-3.15 -27.16)"/><text class="cls-3" transform="translate(148.46 86.9)">MALL</text><text class="cls-4" transform="translate(256.78 85.9)">DOMZON</text></svg>