<svg id="Capa_1" data-name="Capa 1" xmlns="http://www.w3.org/2000/svg" xmlns:xlink="http://www.w3.org/1999/xlink" viewBox="0 0 406.57 460.5"><defs><style>.cls-1{fill:#fff;stroke:#fff;stroke-miterlimit:10;}.cls-2{fill:url(#Degradado_sin_nombre_19);}</style><linearGradient id="Degradado_sin_nombre_19" x1="189.11" y1="335.85" x2="457.62" y2="335.85" gradientUnits="userSpaceOnUse"><stop offset="0" stop-color="#c0930c"/><stop offset="0.95" stop-color="#c0930c"/></linearGradient></defs><title>mall domzon</title><path class="cls-1" d="M330.71,142l24.09,18.22L216.72,347s-12.33-20-15.27-32.9Z" transform="translate(-189.11 -47.5)"/><path class="cls-2" d="M425.89,163.7a143.82,143.82,0,0,1,17.92,14.1,146.05,146.05,0,0,1,13.81,14.69C429.41,230.09,223.19,508,223.19,508a203.16,203.16,0,0,1-18.51-12.63c-5.86-4.49-11-9-15.57-13.22C388.29,214.23,425.89,163.7,425.89,163.7Z" transform="translate(-189.11 -47.5)"/><path class="cls-1" d="M580.12,124.92q7.49,16.17,15,32.32L383,442.2s-25.27,1.17-37-3.53q91.41-123.85,183.83-246.91Q554.92,158.31,580.12,124.92Z" transform="translate(-189.11 -47.5)"/><path class="cls-1" d="M541.8,271.08l33.85-46.43c1.35,14.39,5.88,79.6-40.24,138.5-39.88,50.92-92.81,65.45-108.87,69.22l33.84-47A155.82,155.82,0,0,0,495,360.13C528.29,328,538.38,289.26,541.8,271.08Z" transform="translate(-189.11 -47.5)"/><path class="cls-1" d="M521.07,161.94l20.56-28.79c-8.8-12.75-48.23-66.86-121.28-81.53C349.66,37.42,276.48,66,232.6,120.81,179.68,187,191.1,264.2,193.22,277.1l28.2-37S220.25,138.44,321.6,91.43,512.33,132.12,521.07,161.94Z" transform="translate(-189.11 -47.5)"/></svg>